<svg aria-hidden="true" style="position: absolute; overflow: hidden;" version="1.1"
  xmlns="http://www.w3.org/2000/svg" xmlns:xlink="http://www.w3.org/1999/xlink">
  <defs>
    <symbol id="close" width="16" height="16" viewBox="0 0 16 16" fill="none">
      <path d="M12.4977 2.59873C12.4981 2.59884 12.4984 2.59901 12.499 2.59965L13.4004 3.50106C13.4011 3.5017 13.4012 3.50199 13.4014 3.50237C13.4015 3.50272 13.4015 3.5031 13.4014 3.50345C13.4012 3.50381 13.4011 3.5041 13.4004 3.50474L8.90508 8.0001L13.4004 12.4955C13.4011 12.4961 13.4012 12.4964 13.4014 12.4968C13.4015 12.4971 13.4015 12.4975 13.4014 12.4979C13.4012 12.4982 13.4011 12.4985 13.4004 12.4992L12.499 13.4006C12.4984 13.4012 12.4981 13.4014 12.4977 13.4015C12.4974 13.4016 12.497 13.4016 12.4966 13.4015C12.4963 13.4014 12.496 13.4012 12.4953 13.4006L7.99998 8.9052L3.50462 13.4006C3.504 13.4012 3.50368 13.4014 3.50333 13.4015C3.50297 13.4016 3.50259 13.4016 3.50223 13.4015C3.50189 13.4014 3.50158 13.4012 3.50093 13.4006L2.59953 12.4992C2.59889 12.4985 2.59872 12.4982 2.59861 12.4978C2.59848 12.4975 2.59848 12.4971 2.59861 12.4968C2.59872 12.4964 2.59889 12.4961 2.59953 12.4955L7.09487 8.0001L2.59953 3.50474C2.59889 3.50412 2.59872 3.50381 2.59861 3.50345C2.5985 3.50309 2.5985 3.50271 2.59861 3.50235C2.59872 3.50201 2.59889 3.5017 2.59953 3.50106L3.50093 2.59965C3.50158 2.59901 3.50187 2.59884 3.50225 2.59873C3.5026 2.5986 3.50298 2.5986 3.50333 2.59873C3.50368 2.59884 3.50398 2.59901 3.50462 2.59965L7.99998 7.09499L12.4953 2.59965C12.496 2.59901 12.4963 2.59884 12.4966 2.59873C12.497 2.59862 12.4974 2.59862 12.4977 2.59873H12.4977Z" fill="black"/>
    </symbol>
    <symbol id="burger" width="16" height="16" viewBox="0 0 16 16" fill="none">
      <path d="M14.125 2.5H1.875C1.80625 2.5 1.75 2.55625 1.75 2.625V3.625C1.75 3.69375 1.80625 3.75 1.875 3.75H14.125C14.1938 3.75 14.25 3.69375 14.25 3.625V2.625C14.25 2.55625 14.1938 2.5 14.125 2.5ZM14.125 12.25H1.875C1.80625 12.25 1.75 12.3062 1.75 12.375V13.375C1.75 13.4438 1.80625 13.5 1.875 13.5H14.125C14.1938 13.5 14.25 13.4438 14.25 13.375V12.375C14.25 12.3062 14.1938 12.25 14.125 12.25ZM14.125 7.375H1.875C1.80625 7.375 1.75 7.43125 1.75 7.5V8.5C1.75 8.56875 1.80625 8.625 1.875 8.625H14.125C14.1938 8.625 14.25 8.56875 14.25 8.5V7.5C14.25 7.43125 14.1938 7.375 14.125 7.375Z" fill="black"/>
    </symbol>
    <symbol id="arrow-up" width="16" height="16" viewBox="0 0 16 16" fill="none">
      <path d="M8.10154 5.62972C8.09003 5.61375 8.07489 5.60075 8.05737 5.59177C8.03985 5.5828 8.02044 5.57812 8.00076 5.57812C7.98107 5.57812 7.96167 5.5828 7.94415 5.59177C7.92663 5.60075 7.91149 5.61375 7.89998 5.62972L5.11873 9.47347C5.05935 9.55629 5.11873 9.67191 5.22029 9.67191H5.9531C6.11248 9.67191 6.26404 9.59535 6.35779 9.46566L7.99998 7.19379L9.64373 9.46566C9.73748 9.59535 9.88748 9.67191 10.0484 9.67191H10.7812C10.8828 9.67191 10.9422 9.55629 10.8828 9.47347L8.10154 5.62972Z" fill="black"/>
      <path d="M8 1C4.13438 1 1 4.13438 1 8C1 11.8656 4.13438 15 8 15C11.8656 15 15 11.8656 15 8C15 4.13438 11.8656 1 8 1ZM8 13.8125C4.79063 13.8125 2.1875 11.2094 2.1875 8C2.1875 4.79063 4.79063 2.1875 8 2.1875C11.2094 2.1875 13.8125 4.79063 13.8125 8C13.8125 11.2094 11.2094 13.8125 8 13.8125Z" fill="black"/>
    </symbol>
    <symbol id="arrow-left" width="16" height="16" viewBox="0 0 16 16" fill="none">
      <path d="M9.4266 5.11714L5.58285 7.89839C5.56688 7.9099 5.55387 7.92504 5.5449 7.94256C5.53593 7.96008 5.53125 7.97949 5.53125 7.99917C5.53125 8.01886 5.53593 8.03826 5.5449 8.05578C5.55387 8.07331 5.56688 8.08845 5.58285 8.09995L9.4266 10.8812C9.50941 10.9406 9.62504 10.8812 9.62504 10.7796V10.0468C9.62504 9.88745 9.54847 9.73589 9.41879 9.64214L7.14691 7.99995L9.41879 6.3562C9.54847 6.26245 9.62504 6.11245 9.62504 5.95152V5.2187C9.62504 5.11714 9.50941 5.05777 9.4266 5.11714Z" fill="black"/>
      <path d="M8 1C4.13438 1 1 4.13438 1 8C1 11.8656 4.13438 15 8 15C11.8656 15 15 11.8656 15 8C15 4.13438 11.8656 1 8 1ZM8 13.8125C4.79063 13.8125 2.1875 11.2094 2.1875 8C2.1875 4.79063 4.79063 2.1875 8 2.1875C11.2094 2.1875 13.8125 4.79063 13.8125 8C13.8125 11.2094 11.2094 13.8125 8 13.8125Z" fill="black"/>
    </symbol>
    <symbol id="google" width="16" height="18" viewBox="0 0 16 18" fill="none">
      <path d="M7.4721 8.5813L0.0662842 16.4774C0.149451 16.7774 0.298904 17.054 0.503218 17.2861C0.707533 17.5183 0.9613 17.6998 1.24512 17.8169C1.52894 17.9339 1.8353 17.9834 2.14078 17.9615C2.44626 17.9396 2.74278 17.8468 3.00766 17.6904L11.3406 12.8607L7.4721 8.5813Z" fill="#EA4335"/>
      <path d="M14.9606 7.23914L11.3572 5.13867L7.30103 8.76093L11.3737 12.8494L14.9497 10.7715C15.2664 10.6027 15.5318 10.3488 15.7169 10.0375C15.9021 9.72615 15.9999 9.36918 15.9999 9.00527C15.9999 8.64136 15.9021 8.28439 15.7169 7.97305C15.5318 7.66171 15.2664 7.40788 14.9497 7.23907L14.9606 7.23914Z" fill="#FBBC04"/>
      <path d="M0.0662693 1.4939C0.0215314 1.66232 -0.000751541 1.83609 1.93353e-05 2.01055V15.9607C0.00046109 16.1351 0.0227235 16.3087 0.0662693 16.4774L7.72596 8.78345L0.0662693 1.4939Z" fill="#4285F4"/>
      <path d="M7.52728 8.98563L11.3572 5.13865L3.03528 0.286414C2.72218 0.099812 2.36607 0.000987498 2.00322 3.90087e-06C1.10278 -0.00177702 0.311159 0.606407 0.0662842 1.48828L7.52728 8.98563Z" fill="#34A853"/>
    </symbol>
  </defs>
</svg>